# xmcd CD database file
#
# Track frame offsets:
#	150
#	19878
#	44034
#	67080
#	92521
#	114494
#	132161
#	157349
#	180970
#	202399
#	223851
#	244285
#	282028
#
# Disc length: 4151 seconds
#
# Revision: 5
# Processed by: cddbd v1.5.2PL0 Copyright (c) Steve Scherf et al.
# Submitted via: CDex 1.50
#
DISCID=cb10350d
DTITLE=Seamless Recordings - Purobeach Volumen Dos: Dia
DYEAR=2006
DGENRE=Lo-Fi
TTITLE0=Lenell Brown - Relax To The Max (Chill Mix)
TTITLE1=Baul Dimension - Sonargaon
TTITLE2=Jake Childs - Forgotten
TTITLE3=Jeff Bennett's Lounge Experience - I Am
TTITLE4=Lovers Lane - Island Memories (Original Mix)
TTITLE5=El Kado - Caravane (Lezzi Baba Remix)
TTITLE6=Vanessa Daou - Passed
TTITLE7=Jafrosax - Rollin
TTITLE8=Peter Daou - Seventh Space
TTITLE9=Dalminjo Feat. Anja Oyen Vister - There Is A Light That Never Goes Out
TTITLE10=Numaro - Basic
TTITLE11=Akisy - My Love From Recife
TTITLE12=Ikon - Calling You
EXTD=YEAR: 2006
EXTT0=
EXTT1=
EXTT2=
EXTT3=
EXTT4=
EXTT5=
EXTT6=
EXTT7=
EXTT8=
EXTT9=
EXTT10=
EXTT11=
EXTT12=
PLAYORDER=
